<svg width="157" height="15" viewBox="0 0 157 15" fill="none" xmlns="http://www.w3.org/2000/svg">
<path d="M9.4229 3.37299C9.50104 3.45292 9.54792 3.56482 9.54792 3.70869C9.54792 3.82059 9.53229 3.9165 9.49322 3.99643L7.38362 10.4786C7.34455 10.5825 7.28986 10.6625 7.20391 10.7264C7.11796 10.7903 7.01639 10.8223 6.89919 10.8223C6.78199 10.8223 6.6726 10.7903 6.57884 10.7264C6.48508 10.6625 6.42257 10.5825 6.39132 10.4786L4.76614 4.96357L3.14097 10.4786C3.1019 10.5905 3.03939 10.6784 2.95345 10.7344C2.85969 10.7983 2.76593 10.8223 2.65654 10.8223C2.53934 10.8223 2.43777 10.7903 2.35182 10.7264C2.26587 10.6625 2.20337 10.5825 2.15648 10.4786L0.0468801 3.99643C0.0156267 3.88453 0 3.78862 0 3.70869C0 3.40496 0.14064 3.2531 0.429734 3.2531C0.679762 3.2531 0.851655 3.38898 0.945415 3.65274L2.67998 9.0559L4.28172 3.66873C4.32078 3.54084 4.38329 3.43693 4.46924 3.365C4.55518 3.29306 4.66457 3.2531 4.7974 3.2531C4.93022 3.2531 5.04742 3.29306 5.13337 3.365C5.21932 3.43693 5.28183 3.54084 5.31308 3.66873L6.86794 9.03193L8.58687 3.66073C8.67282 3.39697 8.84471 3.26109 9.08693 3.26109C9.23538 3.2531 9.34477 3.29306 9.4229 3.37299Z" fill="white"/>
<path d="M15.9314 3.68471C16.5018 4.02041 16.955 4.48399 17.2831 5.07546C17.6113 5.66693 17.7754 6.32234 17.7754 7.0417V10.2948C17.7754 10.4466 17.7285 10.5665 17.6269 10.6704C17.5254 10.7744 17.4003 10.8223 17.2519 10.8223C17.0956 10.8223 16.9706 10.7744 16.869 10.6784C16.7675 10.5825 16.7206 10.4546 16.7206 10.2948V9.46353C16.4002 9.90314 16.0017 10.2548 15.5173 10.5106C15.0329 10.7664 14.4938 10.8942 13.9078 10.8942C13.2202 10.8942 12.6029 10.7264 12.0482 10.3907C11.4934 10.055 11.0559 9.59141 10.7355 9.00794C10.4152 8.42446 10.2511 7.76905 10.2511 7.04969C10.2511 6.33034 10.4152 5.67492 10.7434 5.08345C11.0715 4.49198 11.5247 4.0284 12.0951 3.6927C12.6654 3.357 13.3061 3.18915 14.0093 3.18915C14.7125 3.18915 15.3611 3.34901 15.9314 3.68471ZM15.4079 9.55145C15.822 9.30367 16.1502 8.95999 16.3924 8.52038C16.6346 8.08077 16.7518 7.5932 16.7518 7.0417C16.7518 6.49818 16.6346 6.00263 16.3924 5.56302C16.1502 5.12342 15.8299 4.77973 15.4079 4.52396C14.9938 4.26819 14.525 4.1403 14.0093 4.1403C13.4937 4.1403 13.0249 4.26819 12.6108 4.52396C12.1888 4.77973 11.8607 5.12342 11.6185 5.56302C11.3841 6.00263 11.259 6.49019 11.259 7.0417C11.259 7.58521 11.3762 8.08077 11.6185 8.52038C11.8607 8.95999 12.1888 9.30367 12.6108 9.55145C13.0327 9.79923 13.4937 9.92711 14.0093 9.92711C14.525 9.92711 14.9938 9.79923 15.4079 9.55145Z" fill="white"/>
<path d="M23.4322 9.91113C23.5182 10.015 23.5651 10.1429 23.5651 10.3028C23.5651 10.4546 23.5104 10.5745 23.401 10.6784C23.2916 10.7824 23.1588 10.8303 22.9947 10.8303H22.7134C22.2368 10.8303 21.8071 10.7104 21.4242 10.4786C21.0414 10.2468 20.7523 9.92712 20.5335 9.51948C20.3225 9.11984 20.2131 8.66425 20.2131 8.1527V4.45202H19.3302C19.1896 4.45202 19.0724 4.41206 18.9864 4.32414C18.9005 4.23622 18.8614 4.12431 18.8614 3.99643C18.8614 3.86055 18.9005 3.74865 18.9864 3.66073C19.0724 3.57281 19.1896 3.53284 19.3302 3.53284H20.2131V1.38277C20.2131 1.22291 20.26 1.09502 20.3538 0.991116C20.4475 0.887209 20.5726 0.839256 20.7288 0.839256C20.8851 0.839256 21.0101 0.887209 21.1039 0.991116C21.2054 1.09502 21.2523 1.22291 21.2523 1.38277V3.53284H22.7837C22.9244 3.53284 23.0416 3.57281 23.1275 3.66073C23.2135 3.74865 23.2603 3.86055 23.2603 3.99643C23.2603 4.12431 23.2135 4.23622 23.1275 4.32414C23.0416 4.41206 22.9244 4.45202 22.7837 4.45202H21.2523V8.1527C21.2523 8.62428 21.3851 9.00794 21.6586 9.31167C21.9321 9.6154 22.2759 9.75927 22.6978 9.75927H23.065C23.2213 9.75927 23.3385 9.81522 23.4322 9.91113Z" fill="white"/>
<path d="M30.183 3.66073C30.6987 3.98044 31.0971 4.42005 31.3784 4.98754C31.6597 5.54704 31.8081 6.19446 31.8081 6.91382C31.8081 7.05769 31.7613 7.17758 31.6753 7.2655C31.5894 7.35342 31.4722 7.39338 31.3237 7.39338H25.8544C25.9247 8.1527 26.2138 8.76815 26.7217 9.23973C27.2295 9.71131 27.8546 9.9431 28.6203 9.9431C28.9485 9.9431 29.2688 9.88715 29.6048 9.76726C29.9329 9.65536 30.1986 9.50349 30.3939 9.32765C30.5111 9.23174 30.6361 9.19177 30.7612 9.19177C30.8627 9.19177 30.9565 9.23174 31.0581 9.30367C31.1753 9.41557 31.23 9.53547 31.23 9.67934C31.23 9.79923 31.1831 9.90314 31.0815 9.99905C30.7846 10.2548 30.4017 10.4706 29.9408 10.6465C29.4798 10.8223 29.0344 10.9022 28.6125 10.9022C27.8937 10.9022 27.2451 10.7344 26.6748 10.4067C26.1044 10.079 25.659 9.62339 25.3387 9.03192C25.0183 8.44844 24.8543 7.78503 24.8543 7.0417C24.8543 6.29037 25.0027 5.62696 25.3074 5.04349C25.6122 4.46001 26.0341 3.99643 26.5654 3.66872C27.1045 3.34102 27.7139 3.17316 28.4015 3.17316C29.0813 3.18116 29.6751 3.34101 30.183 3.66073ZM26.706 4.78772C26.2529 5.21933 25.9794 5.79482 25.8778 6.50618H30.8315C30.7612 5.79482 30.5033 5.21933 30.0736 4.78772C29.636 4.3561 29.0813 4.1403 28.4093 4.1403C27.7296 4.1323 27.1592 4.3561 26.706 4.78772Z" fill="white"/>
<path d="M37.8166 3.31703C38.0354 3.42094 38.1448 3.56481 38.1448 3.74865C38.1448 3.8046 38.137 3.84456 38.1291 3.87653C38.0901 4.00442 38.0354 4.09234 37.9573 4.1403C37.8791 4.18825 37.7775 4.21223 37.6369 4.21223C37.5588 4.21223 37.4181 4.20424 37.215 4.18825C37.1447 4.18026 37.0353 4.17227 36.8868 4.17227C36.2071 4.17227 35.6601 4.35611 35.2304 4.72378C34.8007 5.09145 34.5897 5.57101 34.5897 6.16249V10.3028C34.5897 10.4706 34.5428 10.5985 34.4569 10.6944C34.3631 10.7903 34.2381 10.8303 34.074 10.8303C33.9099 10.8303 33.7849 10.7823 33.699 10.6944C33.6052 10.5985 33.5661 10.4706 33.5661 10.3028V3.78062C33.5661 3.61277 33.613 3.48488 33.699 3.38897C33.7927 3.29305 33.9177 3.25309 34.074 3.25309C34.2381 3.25309 34.3631 3.30105 34.4569 3.38897C34.5506 3.48488 34.5897 3.61277 34.5897 3.78062V4.38807C34.8554 3.99642 35.1835 3.70069 35.5898 3.48488C35.9961 3.26908 36.4336 3.16517 36.9024 3.16517C37.2931 3.16517 37.5978 3.21313 37.8166 3.31703Z" fill="white"/>
<path d="M45.4581 3.68471C46.0285 4.02041 46.4816 4.48399 46.8098 5.07546C47.138 5.66693 47.302 6.32234 47.302 7.0417C47.302 7.76105 47.138 8.41647 46.8176 8.99995C46.4973 9.58343 46.0597 10.047 45.505 10.3827C44.9502 10.7184 44.3252 10.8863 43.6454 10.8863C43.0594 10.8863 42.5203 10.7584 42.0358 10.5026C41.5514 10.2468 41.1451 9.90314 40.8326 9.45554V13.5159C40.8326 13.6758 40.7857 13.8036 40.6841 13.9076C40.5826 14.0115 40.4575 14.0594 40.3013 14.0594C40.145 14.0594 40.02 14.0115 39.9262 13.9076C39.8325 13.8036 39.7856 13.6758 39.7856 13.5159V10.4147C39.7778 10.3907 39.77 10.3427 39.77 10.2868V7.03371C39.77 6.31435 39.9341 5.65894 40.2622 5.06747C40.5904 4.476 41.0435 4.01241 41.6139 3.67671C42.1843 3.34101 42.825 3.17316 43.5282 3.17316C44.247 3.18116 44.8799 3.34901 45.4581 3.68471ZM44.9424 9.55145C45.3643 9.30367 45.6925 8.95998 45.9347 8.52038C46.1769 8.08077 46.2941 7.5932 46.2941 7.0417C46.2941 6.49818 46.1769 6.00263 45.9347 5.56302C45.7003 5.12342 45.3643 4.77973 44.9424 4.52396C44.5205 4.26819 44.0595 4.1403 43.5438 4.1403C43.0281 4.1403 42.5672 4.26819 42.1452 4.52396C41.7311 4.77973 41.403 5.12342 41.1607 5.56302C40.9185 6.00263 40.8013 6.49019 40.8013 7.0417C40.8013 7.20155 40.8091 7.31345 40.817 7.38539C40.8248 7.40138 40.8326 7.42536 40.8326 7.45733C40.9263 8.17668 41.2154 8.76816 41.7233 9.23174C42.2234 9.69533 42.8328 9.92711 43.5438 9.92711C44.0517 9.92711 44.5205 9.79923 44.9424 9.55145Z" fill="white"/>
<path d="M53.5918 3.31703C53.8105 3.42094 53.9199 3.56481 53.9199 3.74865C53.9199 3.8046 53.9121 3.84456 53.9043 3.87653C53.8652 4.00442 53.8105 4.09234 53.7324 4.1403C53.6543 4.18825 53.5527 4.21223 53.4121 4.21223C53.3339 4.21223 53.1933 4.20424 52.9901 4.18825C52.9198 4.18026 52.8104 4.17227 52.662 4.17227C51.9822 4.17227 51.4353 4.35611 51.0056 4.72378C50.5758 5.09145 50.3649 5.57101 50.3649 6.16249V10.3028C50.3649 10.4706 50.318 10.5985 50.232 10.6944C50.1383 10.7903 50.0133 10.8303 49.8492 10.8303C49.6851 10.8303 49.5601 10.7823 49.4741 10.6944C49.3804 10.5985 49.3413 10.4706 49.3413 10.3028V3.78062C49.3413 3.61277 49.3882 3.48488 49.4741 3.38897C49.5679 3.29305 49.6929 3.25309 49.8492 3.25309C50.0133 3.25309 50.1383 3.30105 50.232 3.38897C50.3258 3.48488 50.3649 3.61277 50.3649 3.78062V4.38807C50.6305 3.99642 50.9587 3.70069 51.365 3.48488C51.7713 3.26908 52.2088 3.16517 52.6776 3.16517C53.0761 3.16517 53.373 3.21313 53.5918 3.31703Z" fill="white"/>
<path d="M56.2874 10.3987C55.7092 10.063 55.2638 9.6074 54.9357 9.02393C54.6075 8.44045 54.4512 7.77704 54.4512 7.04969C54.4512 6.32234 54.6153 5.65894 54.9357 5.06747C55.2638 4.476 55.7092 4.01241 56.2874 3.68471C56.8577 3.34901 57.5063 3.18915 58.2173 3.18915C58.9283 3.18915 59.569 3.357 60.1394 3.68471C60.7097 4.02041 61.1551 4.476 61.4832 5.06747C61.8114 5.65894 61.9755 6.32234 61.9755 7.04969C61.9755 7.77704 61.8114 8.44045 61.4832 9.02393C61.1629 9.6074 60.7097 10.071 60.1394 10.3987C59.5612 10.7344 58.9205 10.8942 58.2095 10.8942C57.5063 10.8942 56.8656 10.7264 56.2874 10.3987ZM59.6237 9.55145C60.0378 9.30367 60.3659 8.95999 60.6003 8.52038C60.8347 8.08077 60.9519 7.5932 60.9519 7.0417C60.9519 6.49019 60.8347 5.99464 60.6003 5.55503C60.3659 5.11542 60.0378 4.77174 59.6237 4.52396C59.2096 4.27618 58.7408 4.14829 58.2173 4.14829C57.7016 4.14829 57.2328 4.27618 56.8187 4.52396C56.3968 4.77174 56.0686 5.11542 55.8264 5.55503C55.592 5.99464 55.467 6.49019 55.467 7.0417C55.467 7.58521 55.5842 8.08077 55.8264 8.52038C56.0686 8.95999 56.3968 9.30367 56.8187 9.55145C57.2406 9.79923 57.7016 9.92711 58.2173 9.92711C58.7408 9.92711 59.2096 9.79923 59.6237 9.55145Z" fill="white"/>
<path d="M65.4603 10.3987C64.8821 10.063 64.4367 9.6074 64.1164 9.02393C63.7882 8.44045 63.6319 7.77704 63.6319 7.04969C63.6319 6.32234 63.796 5.65894 64.1164 5.06747C64.4445 4.476 64.8899 4.01241 65.4603 3.68471C66.0306 3.34901 66.6791 3.18915 67.3902 3.18915C68.1012 3.18915 68.7419 3.357 69.3122 3.68471C69.8826 4.02041 70.328 4.476 70.6561 5.06747C70.9843 5.65894 71.1484 6.32234 71.1484 7.04969C71.1484 7.77704 70.9843 8.44045 70.6561 9.02393C70.3358 9.6074 69.8826 10.071 69.3122 10.3987C68.7341 10.7344 68.0934 10.8942 67.3823 10.8942C66.6713 10.8942 66.0306 10.7264 65.4603 10.3987ZM68.7966 9.55145C69.2107 9.30367 69.5388 8.95999 69.7732 8.52038C70.0076 8.08077 70.1248 7.5932 70.1248 7.0417C70.1248 6.49019 70.0076 5.99464 69.7732 5.55503C69.5388 5.11542 69.2107 4.77174 68.7966 4.52396C68.3825 4.27618 67.9137 4.14829 67.3902 4.14829C66.8745 4.14829 66.4057 4.27618 65.9916 4.52396C65.5697 4.77174 65.2415 5.11542 64.9993 5.55503C64.7649 5.99464 64.6399 6.49019 64.6399 7.0417C64.6399 7.58521 64.7571 8.08077 64.9993 8.52038C65.2415 8.95999 65.5697 9.30367 65.9916 9.55145C66.4135 9.79923 66.8745 9.92711 67.3902 9.92711C67.9137 9.92711 68.3825 9.79923 68.7966 9.55145Z" fill="white"/>
<path d="M75.1019 1.59075C74.7972 1.99839 74.6488 2.5339 74.6488 3.2133V3.53301H76.274C76.4146 3.53301 76.5318 3.57298 76.6177 3.6609C76.7037 3.74882 76.7428 3.86072 76.7428 3.9966C76.7428 4.12448 76.7037 4.23639 76.6177 4.32431C76.5318 4.41223 76.4146 4.45219 76.274 4.45219H74.6488V10.287C74.6488 10.4548 74.6019 10.5827 74.5081 10.6786C74.4144 10.7745 74.2815 10.8225 74.1097 10.8225C73.969 10.8225 73.844 10.7745 73.7502 10.6786C73.6565 10.5827 73.6096 10.4468 73.6096 10.287V4.45219H72.7423C72.6017 4.45219 72.4845 4.41223 72.3985 4.32431C72.3126 4.23639 72.2735 4.12448 72.2735 3.9966C72.2735 3.86072 72.3126 3.74882 72.3985 3.6609C72.4845 3.57298 72.6017 3.53301 72.7423 3.53301H73.6096V3.26925C73.6096 2.27814 73.8596 1.49484 74.3519 0.903365C74.8441 0.311895 75.5473 0.0161591 76.4537 0.0161591C76.6099 0.0161591 76.7349 0.0641208 76.8287 0.152042C76.9303 0.247956 76.9771 0.359856 76.9771 0.495735C76.9771 0.631613 76.9303 0.751506 76.8287 0.839427C76.7271 0.935341 76.6021 0.975304 76.4537 0.975304C75.852 0.975304 75.3989 1.18312 75.1019 1.59075Z" fill="white"/>
<path d="M91.3224 3.55682C91.7366 3.81259 92.0569 4.18026 92.2835 4.65983C92.5101 5.1394 92.6273 5.69091 92.6273 6.31435V10.3028C92.6273 10.4626 92.5804 10.5905 92.4866 10.6864C92.3929 10.7824 92.2679 10.8303 92.1116 10.8303C91.9553 10.8303 91.8303 10.7824 91.7366 10.6864C91.635 10.5905 91.5881 10.4626 91.5881 10.3028V6.31435C91.5881 5.65894 91.424 5.1394 91.0959 4.75574C90.7677 4.37209 90.338 4.18026 89.7988 4.18026C89.2285 4.18026 88.7675 4.37209 88.4159 4.76374C88.0643 5.15539 87.8924 5.65894 87.9002 6.29037V6.31435V10.3028C87.9002 10.4626 87.8533 10.5905 87.7596 10.6864C87.6658 10.7824 87.5408 10.8303 87.3845 10.8303C87.2282 10.8303 87.1032 10.7824 87.0017 10.6864C86.9001 10.5905 86.8532 10.4626 86.8532 10.3028V6.31435C86.8532 5.65894 86.6891 5.1394 86.361 4.75574C86.0328 4.37209 85.6031 4.18026 85.064 4.18026C84.5014 4.18026 84.0404 4.37209 83.681 4.74775C83.3216 5.12342 83.1419 5.61098 83.1419 6.20245V10.3028C83.1419 10.4626 83.095 10.5905 83.0012 10.6864C82.9075 10.7824 82.7825 10.8303 82.6262 10.8303C82.4699 10.8303 82.3449 10.7824 82.2511 10.6864C82.1496 10.5905 82.1027 10.4626 82.1027 10.3028V3.78861C82.1027 3.62875 82.1496 3.50087 82.2511 3.39696C82.3527 3.29305 82.4777 3.2451 82.6262 3.2451C82.7825 3.2451 82.9075 3.29305 83.0012 3.39696C83.095 3.50087 83.1419 3.62875 83.1419 3.78861V4.09234C83.3919 3.79661 83.6966 3.56481 84.0404 3.40496C84.3842 3.2451 84.767 3.16517 85.1733 3.16517C85.6734 3.16517 86.1188 3.27707 86.5172 3.50886C86.9157 3.74065 87.2283 4.06037 87.4627 4.47599C87.7283 4.06037 88.0643 3.74065 88.4862 3.50886C88.9081 3.27707 89.3769 3.16517 89.9004 3.16517C90.4395 3.16517 90.9161 3.29305 91.3224 3.55682Z" fill="white"/>
<path d="M99.8625 3.66073C100.378 3.98044 100.777 4.42005 101.058 4.98754C101.339 5.54704 101.488 6.19446 101.488 6.91382C101.488 7.05769 101.441 7.17758 101.355 7.2655C101.261 7.35342 101.152 7.39338 101.003 7.39338H95.5339C95.6042 8.1527 95.8933 8.76815 96.4011 9.23973C96.909 9.71131 97.5341 9.9431 98.2998 9.9431C98.6279 9.9431 98.9483 9.88715 99.2843 9.76726C99.6124 9.65536 99.8781 9.50349 100.073 9.32765C100.191 9.23174 100.316 9.19177 100.441 9.19177C100.542 9.19177 100.636 9.23174 100.738 9.30367C100.855 9.41557 100.909 9.53547 100.909 9.67934C100.909 9.79923 100.863 9.90314 100.761 9.99905C100.464 10.2548 100.081 10.4706 99.6202 10.6465C99.1593 10.8143 98.7139 10.9022 98.292 10.9022C97.5732 10.9022 96.9246 10.7344 96.3543 10.4067C95.7839 10.079 95.3385 9.62339 95.0182 9.03192C94.6978 8.44844 94.5338 7.78503 94.5338 7.0417C94.5338 6.29037 94.6822 5.62696 94.9869 5.04349C95.2916 4.46001 95.7136 3.99643 96.2449 3.66872C96.784 3.34102 97.3934 3.17316 98.081 3.17316C98.753 3.18116 99.3468 3.34101 99.8625 3.66073ZM96.3777 4.78772C95.9245 5.21933 95.6511 5.79482 95.5495 6.50618H100.503C100.433 5.79482 100.175 5.21933 99.7453 4.78772C99.3077 4.3561 98.753 4.1403 98.081 4.1403C97.4013 4.1323 96.8309 4.3561 96.3777 4.78772Z" fill="white"/>
<path d="M112.465 3.55682C112.88 3.81259 113.2 4.18026 113.426 4.65983C113.653 5.1394 113.77 5.69091 113.77 6.31435V10.3028C113.77 10.4626 113.723 10.5905 113.63 10.6864C113.536 10.7824 113.411 10.8303 113.255 10.8303C113.098 10.8303 112.973 10.7824 112.88 10.6864C112.778 10.5905 112.731 10.4626 112.731 10.3028V6.31435C112.731 5.65894 112.567 5.1394 112.239 4.75574C111.911 4.37209 111.481 4.18026 110.942 4.18026C110.371 4.18026 109.91 4.37209 109.559 4.76374C109.207 5.15539 109.035 5.65894 109.043 6.29037V6.31435V10.3028C109.043 10.4626 108.996 10.5905 108.903 10.6864C108.809 10.7824 108.684 10.8303 108.527 10.8303C108.371 10.8303 108.246 10.7824 108.145 10.6864C108.043 10.5905 107.996 10.4626 107.996 10.3028V6.31435C107.996 5.65894 107.832 5.1394 107.504 4.75574C107.176 4.37209 106.746 4.18026 106.207 4.18026C105.644 4.18026 105.183 4.37209 104.824 4.74775C104.465 5.12342 104.285 5.61098 104.285 6.20245V10.3028C104.285 10.4626 104.238 10.5905 104.144 10.6864C104.05 10.7824 103.925 10.8303 103.769 10.8303C103.613 10.8303 103.488 10.7824 103.394 10.6864C103.293 10.5905 103.246 10.4626 103.246 10.3028V3.78861C103.246 3.62875 103.293 3.50087 103.394 3.39696C103.496 3.29305 103.621 3.2451 103.769 3.2451C103.925 3.2451 104.05 3.29305 104.144 3.39696C104.238 3.50087 104.285 3.62875 104.285 3.78861V4.09234C104.535 3.79661 104.84 3.56481 105.183 3.40496C105.527 3.2451 105.91 3.16517 106.316 3.16517C106.816 3.16517 107.262 3.27707 107.66 3.50886C108.059 3.74065 108.371 4.06037 108.606 4.47599C108.871 4.06037 109.207 3.74065 109.629 3.50886C110.051 3.27707 110.52 3.16517 111.043 3.16517C111.582 3.16517 112.051 3.29305 112.465 3.55682Z" fill="white"/>
<path d="M121.81 3.68471C122.365 4.02041 122.802 4.484 123.123 5.06747C123.443 5.65095 123.607 6.30636 123.607 7.02572C123.607 7.74507 123.443 8.40049 123.115 8.99196C122.787 9.58343 122.334 10.047 121.763 10.3827C121.193 10.7184 120.552 10.8863 119.849 10.8863C119.146 10.8863 118.505 10.7184 117.935 10.3827C117.364 10.047 116.911 9.58343 116.583 8.99196C116.255 8.40049 116.091 7.74507 116.091 7.02572V3.77263C116.091 3.71668 116.099 3.67671 116.106 3.64474V0.543521C116.106 0.383664 116.153 0.255781 116.247 0.151874C116.341 0.0479666 116.466 7.62939e-06 116.622 7.62939e-06C116.778 7.62939e-06 116.903 0.0479666 117.005 0.151874C117.107 0.255781 117.153 0.383664 117.153 0.543521V4.60389C117.466 4.16428 117.872 3.81259 118.357 3.55682C118.849 3.30105 119.38 3.17317 119.966 3.17317C120.63 3.18116 121.255 3.34901 121.81 3.68471ZM121.24 9.54346C121.662 9.28769 121.99 8.944 122.224 8.50439C122.466 8.06479 122.584 7.57722 122.584 7.02572C122.584 6.47421 122.466 5.98665 122.224 5.54704C121.99 5.10744 121.654 4.76374 121.24 4.51597C120.818 4.26819 120.357 4.1403 119.841 4.1403C119.13 4.1403 118.521 4.3721 118.021 4.83568C117.521 5.29927 117.224 5.89073 117.13 6.61009C117.13 6.63407 117.122 6.65805 117.114 6.68202C117.107 6.75396 117.099 6.87385 117.099 7.02572C117.099 7.56923 117.216 8.06479 117.458 8.50439C117.7 8.944 118.021 9.28769 118.443 9.54346C118.857 9.79924 119.326 9.92712 119.841 9.92712C120.349 9.92712 120.818 9.79924 121.24 9.54346Z" fill="white"/>
<path d="M129.889 3.31703C130.108 3.42094 130.217 3.56481 130.217 3.74865C130.217 3.8046 130.21 3.84456 130.202 3.87653C130.163 4.00442 130.108 4.09234 130.03 4.1403C129.952 4.18825 129.85 4.21223 129.709 4.21223C129.631 4.21223 129.491 4.20424 129.288 4.18825C129.217 4.18026 129.108 4.17227 128.959 4.17227C128.28 4.17227 127.733 4.35611 127.303 4.72378C126.873 5.09145 126.662 5.57101 126.662 6.16249V10.3028C126.662 10.4706 126.615 10.5985 126.529 10.6944C126.436 10.7903 126.311 10.8303 126.147 10.8303C125.982 10.8303 125.857 10.7823 125.772 10.6944C125.678 10.5985 125.639 10.4706 125.639 10.3028V3.78062C125.639 3.61277 125.686 3.48488 125.772 3.38897C125.857 3.29305 125.99 3.25309 126.147 3.25309C126.311 3.25309 126.436 3.30105 126.529 3.38897C126.623 3.48488 126.662 3.61277 126.662 3.78062V4.38807C126.928 3.99642 127.256 3.70069 127.662 3.48488C128.069 3.26908 128.506 3.16517 128.975 3.16517C129.373 3.16517 129.67 3.21313 129.889 3.31703Z" fill="white"/>
<path d="M136.437 3.68471C137.007 4.02041 137.46 4.48399 137.788 5.07546C138.117 5.66693 138.281 6.32234 138.281 7.0417V10.2948C138.281 10.4466 138.234 10.5665 138.132 10.6704C138.031 10.7744 137.906 10.8223 137.757 10.8223C137.601 10.8223 137.476 10.7744 137.374 10.6784C137.273 10.5825 137.226 10.4546 137.226 10.2948V9.46353C136.906 9.90314 136.507 10.2548 136.023 10.5106C135.538 10.7664 134.999 10.8942 134.413 10.8942C133.726 10.8942 133.108 10.7264 132.554 10.3907C131.999 10.055 131.561 9.59141 131.241 9.00794C130.921 8.42446 130.756 7.76905 130.756 7.04969C130.756 6.33034 130.921 5.67492 131.249 5.08345C131.577 4.49198 132.03 4.0284 132.6 3.6927C133.171 3.357 133.811 3.18915 134.515 3.18915C135.218 3.18915 135.859 3.34901 136.437 3.68471ZM135.913 9.55145C136.327 9.30367 136.656 8.95999 136.898 8.52038C137.14 8.08077 137.257 7.5932 137.257 7.0417C137.257 6.49818 137.14 6.00263 136.898 5.56302C136.656 5.12342 136.335 4.77973 135.913 4.52396C135.499 4.26819 135.03 4.1403 134.515 4.1403C133.999 4.1403 133.53 4.26819 133.116 4.52396C132.694 4.77973 132.366 5.12342 132.124 5.56302C131.889 6.00263 131.764 6.49019 131.764 7.0417C131.764 7.58521 131.882 8.08077 132.124 8.52038C132.366 8.95999 132.694 9.30367 133.116 9.55145C133.538 9.79923 133.999 9.92711 134.515 9.92711C135.03 9.92711 135.499 9.79923 135.913 9.55145Z" fill="white"/>
<path d="M145.547 3.5808C146.055 3.86055 146.453 4.26019 146.743 4.79571C147.032 5.32324 147.18 5.96266 147.18 6.698V10.3028C147.18 10.4546 147.133 10.5745 147.032 10.6784C146.93 10.7823 146.813 10.8303 146.664 10.8303C146.508 10.8303 146.383 10.7823 146.282 10.6784C146.18 10.5745 146.133 10.4546 146.133 10.3028V6.698C146.133 5.87474 145.907 5.2513 145.461 4.81969C145.016 4.38807 144.43 4.17227 143.711 4.17227C143.266 4.17227 142.867 4.26019 142.516 4.43603C142.164 4.61188 141.875 4.85166 141.672 5.16338C141.461 5.4751 141.359 5.81879 141.359 6.19446V10.2948C141.359 10.4546 141.312 10.5825 141.219 10.6784C141.125 10.7744 141 10.8223 140.843 10.8223C140.687 10.8223 140.562 10.7744 140.468 10.6784C140.367 10.5825 140.32 10.4546 140.32 10.2948V3.78062C140.32 3.62076 140.367 3.49287 140.468 3.38897C140.57 3.28506 140.695 3.23711 140.843 3.23711C141 3.23711 141.125 3.28506 141.219 3.38897C141.312 3.49287 141.359 3.62076 141.359 3.78062V4.25219C141.656 3.9085 142.015 3.64474 142.445 3.44492C142.867 3.25309 143.328 3.15717 143.828 3.15717C144.461 3.16517 145.039 3.30105 145.547 3.5808Z" fill="white"/>
<path d="M154.407 3.66073C154.923 3.98044 155.322 4.42005 155.603 4.98754C155.884 5.54704 156.033 6.19446 156.033 6.91382C156.033 7.05769 155.986 7.17758 155.9 7.2655C155.806 7.35342 155.697 7.39338 155.548 7.39338H150.079C150.149 8.1527 150.438 8.76815 150.946 9.23973C151.454 9.71131 152.079 9.9431 152.845 9.9431C153.173 9.9431 153.493 9.88715 153.829 9.76726C154.157 9.65536 154.423 9.50349 154.618 9.32765C154.736 9.23174 154.861 9.19177 154.986 9.19177C155.087 9.19177 155.181 9.23174 155.283 9.30367C155.4 9.41557 155.454 9.53547 155.454 9.67934C155.454 9.79923 155.408 9.90314 155.306 9.99905C155.009 10.2548 154.626 10.4706 154.165 10.6465C153.704 10.8143 153.259 10.9022 152.837 10.9022C152.118 10.9022 151.47 10.7344 150.899 10.4067C150.329 10.079 149.884 9.62339 149.563 9.03192C149.243 8.44844 149.079 7.78503 149.079 7.0417C149.079 6.29037 149.227 5.62696 149.532 5.04349C149.837 4.46001 150.259 3.99643 150.79 3.66872C151.329 3.34102 151.938 3.17316 152.626 3.17316C153.306 3.18116 153.9 3.34101 154.407 3.66073ZM150.931 4.78772C150.477 5.21933 150.204 5.79482 150.102 6.50618H155.056C154.986 5.79482 154.728 5.21933 154.298 4.78772C153.861 4.3561 153.306 4.1403 152.634 4.1403C151.954 4.1323 151.384 4.3561 150.931 4.78772Z" fill="white"/>
</svg>
