<svg width="24" height="16" viewBox="0 0 24 16" fill="none" xmlns="http://www.w3.org/2000/svg">
<path d="M21.6596 0H1.3048C0.569366 0 0 0.5925 0 1.34547V14.4792C0 15.2322 0.569366 15.8247 1.3048 15.8247H21.7071C22.4306 15.8247 23.0119 15.2322 23.0119 14.4792V1.34547C22.9644 0.5925 22.3832 0 21.6596 0ZM0.960805 1.65406L7.11707 7.72719L0.960805 14.0719V1.65406ZM13.0124 9.14672C12.1702 9.97375 10.7942 9.97375 9.95204 9.14672L1.64879 0.9875H21.3156L13.0124 9.14672ZM7.80505 8.39375L9.26405 9.85031C10.4858 11.0723 12.443 11.0723 13.6648 9.85031L15.1238 8.39375L21.3275 14.7878H1.64879L7.80505 8.39375ZM15.8473 7.72719L22.0036 1.65406V14.0719L15.8473 7.72719Z" fill="#009B8F"/>
</svg>
