<svg width="229" height="27" viewBox="0 0 229 27" fill="none" xmlns="http://www.w3.org/2000/svg">
<path d="M115.007 8.9689C116.505 9.78916 117.691 10.9148 118.554 12.3457C119.416 13.7767 119.85 15.3693 119.85 17.1235C119.85 18.8778 119.403 20.4764 118.515 21.9193C117.626 23.3623 116.407 24.4938 114.858 25.3141C113.308 26.1344 111.583 26.5475 109.684 26.5475C107.784 26.5475 106.059 26.1344 104.51 25.3141C102.96 24.4938 101.741 23.3623 100.853 21.9193C99.9644 20.4764 99.517 18.8778 99.517 17.1235V9.19043C99.517 9.05272 99.53 8.95693 99.5559 8.88508V1.3172C99.5559 0.934012 99.6856 0.622676 99.9385 0.371211C100.191 0.125734 100.528 0 100.943 0C101.358 0 101.702 0.125734 101.968 0.371211C102.234 0.616689 102.37 0.934012 102.37 1.3172V11.2081C103.226 10.1304 104.309 9.28024 105.625 8.65757C106.941 8.04088 108.393 7.72954 109.975 7.72954C111.83 7.73553 113.503 8.14865 115.007 8.9689ZM113.47 23.2545C114.605 22.6378 115.493 21.7936 116.142 20.7219C116.79 19.6502 117.108 18.4527 117.108 17.1235C117.108 15.7944 116.784 14.5969 116.142 13.5252C115.493 12.4535 114.605 11.6153 113.47 11.0106C112.336 10.4058 111.078 10.1005 109.684 10.1005C107.758 10.1005 106.118 10.6633 104.769 11.7889C103.414 12.9145 102.616 14.3574 102.37 16.1117C102.37 16.1776 102.357 16.2374 102.331 16.2793C102.305 16.459 102.292 16.7404 102.292 17.1235C102.292 18.4527 102.616 19.6502 103.258 20.7219C103.907 21.7936 104.788 22.6378 105.91 23.2545C107.032 23.8712 108.29 24.1825 109.677 24.1825C111.071 24.1825 112.336 23.8712 113.47 23.2545Z" fill="white"/>
<path d="M139.652 8.9689C141.202 9.78915 142.421 10.9207 143.309 12.3637C144.197 13.8066 144.645 15.4052 144.645 17.1595V25.0926C144.645 25.4518 144.509 25.7571 144.243 26.0026C143.977 26.2481 143.633 26.3738 143.218 26.3738C142.803 26.3738 142.46 26.2541 142.194 26.0206C141.928 25.7871 141.792 25.4757 141.792 25.0926V23.0689C140.936 24.1466 139.853 24.9968 138.537 25.6194C137.221 26.2361 135.768 26.5475 134.186 26.5475C132.332 26.5475 130.659 26.1343 129.161 25.3141C127.663 24.4938 126.477 23.3682 125.615 21.9373C124.752 20.5063 124.318 18.9137 124.318 17.1595C124.318 15.4052 124.765 13.8066 125.653 12.3637C126.542 10.9207 127.761 9.78915 129.31 8.9689C130.86 8.14865 132.585 7.73552 134.485 7.73552C136.378 7.73552 138.103 8.14865 139.652 8.9689ZM138.245 23.2665C139.367 22.6558 140.249 21.8175 140.897 20.7518C141.545 19.6801 141.863 18.4826 141.863 17.1535C141.863 15.8243 141.539 14.6268 140.897 13.5551C140.249 12.4834 139.367 11.6392 138.245 11.0225C137.123 10.4058 135.866 10.0945 134.478 10.0945C133.09 10.0945 131.826 10.4058 130.691 11.0225C129.557 11.6392 128.668 12.4834 128.02 13.5551C127.372 14.6268 127.054 15.8243 127.054 17.1535C127.054 18.4826 127.378 19.6801 128.02 20.7518C128.668 21.8235 129.557 22.6617 130.691 23.2665C131.826 23.8772 133.09 24.1765 134.478 24.1765C135.866 24.1825 137.117 23.8772 138.245 23.2665Z" fill="white"/>
<path d="M161.587 8.07082C162.184 8.3163 162.482 8.66954 162.482 9.11859C162.482 9.25629 162.469 9.35209 162.443 9.42394C162.346 9.74126 162.19 9.95082 161.989 10.0646C161.782 10.1783 161.496 10.2322 161.127 10.2322C160.906 10.2322 160.53 10.2083 159.992 10.1664C159.798 10.1424 159.506 10.1304 159.117 10.1304C157.288 10.1304 155.797 10.5795 154.636 11.4836C153.476 12.3816 152.899 13.5551 152.899 14.9981V25.0926C152.899 25.4997 152.776 25.811 152.536 26.0386C152.289 26.2661 151.952 26.3738 151.511 26.3738C151.07 26.3738 150.733 26.2601 150.487 26.0386C150.24 25.811 150.124 25.4997 150.124 25.0926V9.19043C150.124 8.7833 150.247 8.47197 150.487 8.24445C150.733 8.01693 151.07 7.90916 151.511 7.90916C151.952 7.90916 152.289 8.02292 152.536 8.24445C152.782 8.47197 152.899 8.7833 152.899 9.19043V10.6753C153.606 9.72929 154.507 8.99884 155.603 8.47795C156.698 7.96305 157.878 7.69961 159.149 7.69961C160.18 7.69961 160.991 7.82534 161.587 8.07082Z" fill="white"/>
<path d="M178.335 8.07082C178.932 8.3163 179.23 8.66954 179.23 9.11859C179.23 9.25629 179.217 9.35209 179.191 9.42394C179.094 9.74126 178.938 9.95082 178.737 10.0646C178.53 10.1783 178.244 10.2322 177.875 10.2322C177.654 10.2322 177.278 10.2083 176.74 10.1664C176.545 10.1424 176.254 10.1304 175.865 10.1304C174.036 10.1304 172.545 10.5795 171.384 11.4836C170.224 12.3816 169.647 13.5551 169.647 14.9981V25.0926C169.647 25.4997 169.523 25.811 169.284 26.0386C169.037 26.2661 168.7 26.3738 168.259 26.3738C167.818 26.3738 167.481 26.2601 167.235 26.0386C166.988 25.811 166.872 25.4997 166.872 25.0926V9.19043C166.872 8.7833 166.995 8.47197 167.235 8.24445C167.481 8.01693 167.818 7.90916 168.259 7.90916C168.7 7.90916 169.037 8.02292 169.284 8.24445C169.53 8.47197 169.647 8.7833 169.647 9.19043V10.6753C170.353 9.72929 171.255 8.99884 172.35 8.47795C173.446 7.96305 174.626 7.69961 175.897 7.69961C176.928 7.69961 177.739 7.82534 178.335 8.07082Z" fill="white"/>
<path d="M184.19 3.8498C183.814 3.49056 183.626 3.05349 183.626 2.5326C183.626 1.99375 183.82 1.55069 184.209 1.21541C184.598 0.880121 185.072 0.70649 185.636 0.70649C186.174 0.70649 186.634 0.874134 187.023 1.21541C187.413 1.55069 187.607 1.99375 187.607 2.5326C187.607 3.05349 187.413 3.49056 187.023 3.8498C186.634 4.20903 186.161 4.38865 185.597 4.38865C185.033 4.39464 184.566 4.21502 184.19 3.8498ZM184.611 26.0026C184.346 25.7571 184.209 25.4398 184.209 25.0566V9.22036C184.209 8.83718 184.346 8.52584 184.611 8.27437C184.877 8.0289 185.221 7.90317 185.636 7.90317C186.051 7.90317 186.388 8.0289 186.641 8.27437C186.894 8.51985 187.023 8.83718 187.023 9.22036V25.0566C187.023 25.4398 186.894 25.7571 186.641 26.0026C186.388 26.2481 186.051 26.3738 185.636 26.3738C185.221 26.3738 184.877 26.2541 184.611 26.0026Z" fill="white"/>
<path d="M207.499 8.90304C208.887 9.68138 209.97 10.7531 210.735 12.1302C211.5 13.5012 211.889 15.0699 211.889 16.8242C211.889 17.1834 211.766 17.4708 211.526 17.6863C211.28 17.9019 210.962 18.0096 210.573 18.0096H195.803C195.997 19.8537 196.775 21.3505 198.143 22.5001C199.511 23.6496 201.217 24.2244 203.265 24.2244C204.141 24.2244 205.029 24.0867 205.917 23.7993C206.806 23.5179 207.519 23.1647 208.057 22.7336C208.375 22.5061 208.705 22.3983 209.043 22.3983C209.308 22.3983 209.581 22.4881 209.847 22.6677C210.164 22.9372 210.32 23.2425 210.32 23.5778C210.32 23.8712 210.184 24.1286 209.918 24.3561C209.114 24.9848 208.089 25.5117 206.845 25.9248C205.6 26.3439 204.407 26.5475 203.259 26.5475C201.307 26.5475 199.563 26.1463 198.033 25.35C196.496 24.5537 195.297 23.4341 194.428 22.0091C193.566 20.5782 193.131 18.9676 193.131 17.1654C193.131 15.3393 193.54 13.7168 194.357 12.2858C195.174 10.8549 196.308 9.74126 197.761 8.94495C199.213 8.14865 200.86 7.7475 202.714 7.7475C204.517 7.73553 206.112 8.1247 207.499 8.90304ZM198.104 11.6512C196.885 12.7109 196.14 14.106 195.874 15.8363H209.257C209.062 14.106 208.381 12.7049 207.208 11.6512C206.034 10.5914 204.536 10.0646 202.708 10.0646C200.86 10.0646 199.323 10.5974 198.104 11.6512Z" fill="white"/>
<path d="M228.105 8.07082C228.702 8.3163 229 8.66954 229 9.11859C229 9.25629 228.987 9.35209 228.961 9.42394C228.864 9.74126 228.708 9.95082 228.507 10.0646C228.3 10.1783 228.014 10.2322 227.645 10.2322C227.424 10.2322 227.048 10.2083 226.51 10.1664C226.316 10.1424 226.024 10.1304 225.635 10.1304C223.806 10.1304 222.315 10.5795 221.155 11.4836C219.994 12.3816 219.417 13.5551 219.417 14.9981V25.0926C219.417 25.4997 219.294 25.811 219.054 26.0386C218.807 26.2661 218.47 26.3738 218.029 26.3738C217.588 26.3738 217.251 26.2601 217.005 26.0386C216.758 25.811 216.642 25.4997 216.642 25.0926V9.19043C216.642 8.7833 216.765 8.47197 217.005 8.24445C217.251 8.01693 217.588 7.90916 218.029 7.90916C218.47 7.90916 218.807 8.02292 219.054 8.24445C219.3 8.47197 219.417 8.7833 219.417 9.19043V10.6753C220.124 9.72929 221.025 8.99884 222.121 8.47795C223.216 7.96305 224.396 7.69961 225.667 7.69961C226.698 7.69961 227.509 7.82534 228.105 8.07082Z" fill="white"/>
<path d="M28.9737 0.37121C29.2395 0.616687 29.3757 0.934011 29.3757 1.3172V25.0566C29.3757 25.4159 29.2395 25.7272 28.9737 25.9847C28.7079 26.2421 28.3772 26.3738 27.9882 26.3738C27.5732 26.3738 27.2231 26.2421 26.9443 25.9847C26.6654 25.7272 26.5228 25.4159 26.5228 25.0566V5.94534L16.3626 25.1225C16.0708 25.5536 15.6558 25.7631 15.1177 25.7631C14.5082 25.7631 14.0673 25.4937 13.8014 24.9549L3.67362 6.2447V25.0507C3.67362 25.4099 3.53745 25.7212 3.27161 25.9787C3.00577 26.2361 2.66213 26.3679 2.24717 26.3679C1.85813 26.3679 1.52097 26.2361 1.24216 25.9787C0.963356 25.7212 0.820709 25.4099 0.820709 25.0507V1.3172C0.820709 0.934011 0.956872 0.622674 1.24216 0.37121C1.52097 0.125732 1.85165 0 2.24717 0C2.81126 0 3.23272 0.227516 3.52449 0.676559L15.2279 22.1528L26.7108 0.676559C27.0026 0.227516 27.4305 0 27.9882 0C28.3772 0 28.7079 0.125732 28.9737 0.37121Z" fill="white"/>
<path d="M36.8905 3.8498C36.5144 3.49057 36.3264 3.0535 36.3264 2.53261C36.3264 1.99376 36.5209 1.5507 36.91 1.21541C37.299 0.880127 37.7723 0.706497 38.3364 0.706497C38.8746 0.706497 39.3349 0.87414 39.724 1.21541C40.113 1.5507 40.3075 1.99376 40.3075 2.53261C40.3075 3.0535 40.113 3.49057 39.724 3.8498C39.3349 4.20904 38.8616 4.38866 38.2975 4.38866C37.7399 4.38866 37.2731 4.20904 36.8905 3.8498ZM37.312 26.0026C37.0461 25.7572 36.91 25.4398 36.91 25.0566V9.22037C36.91 8.83718 37.0461 8.52585 37.312 8.27438C37.5778 8.0289 37.9214 7.90317 38.3364 7.90317C38.7514 7.90317 39.0885 8.0289 39.3414 8.27438C39.5943 8.51986 39.724 8.83718 39.724 9.22037V25.0566C39.724 25.4398 39.5943 25.7572 39.3414 26.0026C39.0885 26.2481 38.7514 26.3738 38.3364 26.3738C37.9214 26.3738 37.5778 26.2481 37.312 26.0026Z" fill="white"/>
<path d="M61.0299 8.71145C62.4045 9.38801 63.4873 10.3699 64.2654 11.6632C65.0435 12.9564 65.439 14.5071 65.439 16.3033V25.0866C65.439 25.4458 65.3028 25.7512 65.037 25.9966C64.7711 26.2421 64.4405 26.3679 64.0514 26.3679C63.6365 26.3679 63.2928 26.2421 63.027 25.9966C62.7611 25.7512 62.625 25.4458 62.625 25.0866V16.3093C62.625 14.3035 62.022 12.7828 60.816 11.735C59.61 10.6872 58.0279 10.1664 56.0827 10.1664C54.8897 10.1664 53.8069 10.3819 52.8473 10.807C51.8812 11.2321 51.1226 11.8248 50.5585 12.5792C49.9944 13.3336 49.7156 14.1718 49.7156 15.0939V25.0866C49.7156 25.4698 49.5859 25.7811 49.333 26.0146C49.0801 26.2481 48.743 26.3679 48.328 26.3679C47.913 26.3679 47.5759 26.2481 47.3036 26.0146C47.0377 25.7811 46.9016 25.4698 46.9016 25.0866V9.22037C46.9016 8.83719 47.0377 8.52585 47.3036 8.27438C47.5694 8.02891 47.913 7.90317 48.328 7.90317C48.743 7.90317 49.0801 8.02891 49.333 8.27438C49.5859 8.51986 49.7156 8.83719 49.7156 9.22037V10.3699C50.5196 9.53769 51.4921 8.88508 52.6398 8.41209C53.7874 7.9391 55.0259 7.7056 56.368 7.7056C58.0927 7.69961 59.6489 8.03489 61.0299 8.71145Z" fill="white"/>
<path d="M81.4152 24.1406C81.6616 24.3861 81.7783 24.7034 81.7783 25.0866C81.7783 25.4458 81.6292 25.7512 81.3374 25.9966C81.0456 26.2421 80.6761 26.3679 80.2416 26.3679H79.4765C78.1862 26.3679 77.0256 26.0805 76.0012 25.5057C74.9767 24.9309 74.1792 24.1526 73.6086 23.1766C73.0381 22.1947 72.7463 21.0871 72.7463 19.8477V10.8369H70.3667C69.9777 10.8369 69.6664 10.7292 69.433 10.5136C69.1996 10.2981 69.0829 10.0346 69.0829 9.72329C69.0829 9.38801 69.1996 9.11259 69.433 8.89705C69.6664 8.68151 69.9712 8.57374 70.3667 8.57374H72.7463V3.34088C72.7463 2.9577 72.876 2.64636 73.1288 2.3949C73.3817 2.14942 73.7189 2.02369 74.1338 2.02369C74.5488 2.02369 74.886 2.14942 75.1583 2.3949C75.4241 2.64038 75.5603 2.9577 75.5603 3.34088V8.57374H79.6905C80.0795 8.57374 80.3908 8.68151 80.6242 8.89705C80.8576 9.11259 80.9743 9.38801 80.9743 9.72329C80.9743 10.0406 80.8576 10.3041 80.6242 10.5136C80.3908 10.7292 80.0795 10.8369 79.6905 10.8369H75.5603V19.8537C75.5603 21.0033 75.9234 21.9433 76.6561 22.6737C77.3887 23.4042 78.3289 23.7694 79.4701 23.7694H80.4556C80.8511 23.7694 81.1688 23.8951 81.4152 24.1406Z" fill="white"/>
</svg>
