<svg width="23" height="23" viewBox="0 0 23 23" fill="none" xmlns="http://www.w3.org/2000/svg">
<path d="M12 0C7.58639 0 4 3.4888 4 7.78231C4 9.23079 4.41094 10.6481 5.19546 11.8733L11.5464 21.831C11.6691 22.0231 11.8826 22.1373 12.1121 22.1373H12.1174C12.3522 22.1373 12.5657 22.0179 12.6831 21.8206L18.8739 11.7695C19.6104 10.5702 20 9.18925 20 7.78231C20 3.4888 16.4136 0 12 0ZM17.7265 11.105L12.1014 20.2423L6.32688 11.1932C5.67578 10.1705 5.32355 8.99197 5.32355 7.78231C5.32355 4.20525 8.32288 1.28753 12 1.28753C15.6771 1.28753 18.6711 4.20525 18.6711 7.78231C18.6711 8.95563 18.3402 10.103 17.7265 11.105Z" fill="#009B8F"/>
<path d="M12.0001 3.89374C9.796 3.89374 8.00281 5.63814 8.00281 7.7823C8.00281 9.91608 9.76932 11.6761 12.0001 11.6761C14.263 11.6761 16.0028 9.89531 16.0028 7.7823C16.0028 5.63814 14.2043 3.89374 12.0001 3.89374ZM12.0001 10.3833C10.5218 10.3833 9.32636 9.2152 9.32636 7.7823C9.32636 6.3494 10.5325 5.18127 12.0001 5.18127C13.4731 5.18127 14.6739 6.35459 14.6739 7.7823C14.6739 9.19443 13.4998 10.3833 12.0001 10.3833Z" fill="#009B8F"/>
</svg>
